<svg xmlns="http://www.w3.org/2000/svg" viewBox="0 0 402.01 345.84"><g id="freepik--background-simple--inject-68"><path d="M405.73,303.19c-8.85-16.83-13-33.12-8.13-51.76,5.16-19.64,15.09-40.52,12-61.29-4.66-30.9-26.88-62.06-55.53-80.77-27.61-18-61.2-24.51-90.83-8.09-24.41,13.54-39.77,42-69.37,46C159.3,152,145.3,127.7,107,143.57c-15.06,6.24-28,17.58-34,33-6.72,17.46-.92,30.51,6.25,46.78a128,128,0,0,1,10.62,56.08c-.63,17.06-7.56,33-7.59,50-.06,30,18.23,59.82,48,68,37.33,10.26,73.74-45.74,114.81-49.47,21.42-1.95,32.71,15.3,46.68,28.07,16.74,15.31,38.9,25.8,61.93,24.78C402.91,398.66,427.62,344.79,405.73,303.19Z" transform="translate(-52.61 -79.95)" style="fill:#00FF76"></path><path d="M405.73,303.19c-8.85-16.83-13-33.12-8.13-51.76,5.16-19.64,15.09-40.52,12-61.29-4.66-30.9-26.88-62.06-55.53-80.77-27.61-18-61.2-24.51-90.83-8.09-24.41,13.54-39.77,42-69.37,46C159.3,152,145.3,127.7,107,143.57c-15.06,6.24-28,17.58-34,33-6.72,17.46-.92,30.51,6.25,46.78a128,128,0,0,1,10.62,56.08c-.63,17.06-7.56,33-7.59,50-.06,30,18.23,59.82,48,68,37.33,10.26,73.74-45.74,114.81-49.47,21.42-1.95,32.71,15.3,46.68,28.07,16.74,15.31,38.9,25.8,61.93,24.78C402.91,398.66,427.62,344.79,405.73,303.19Z" transform="translate(-52.61 -79.95)" style="fill:#fff;opacity:0.7000000000000001"></path></g><g id="freepik--Card--inject-68"><rect x="144.61" y="174.08" width="228.25" height="139.52" rx="8.13" transform="translate(-67.8 -62.75) rotate(-3.7)" style="fill:#00FF76;stroke:#263238;stroke-linecap:round;stroke-linejoin:round"></rect><path d="M361.14,167.32l-213.8,13.81a7,7,0,0,0-6.54,7.45l2.33,36,227.78-14.72-2.33-36A7,7,0,0,0,361.14,167.32Z" transform="translate(-52.61 -79.95)" style="fill:#263238;stroke:#263238;stroke-linecap:round;stroke-linejoin:round"></path><path d="M228.58,285.53c-39.1,20.12-64.62,24.6-79.94,24.41l.25,3.89a7,7,0,0,0,7.45,6.54l213.79-13.82a7,7,0,0,0,6.54-7.45l-4.51-69.83C310.85,230.42,293.48,252.13,228.58,285.53Z" transform="translate(-52.61 -79.95)" style="fill:#263238;stroke:#263238;stroke-linecap:round;stroke-linejoin:round"></path><rect x="163.85" y="213.39" width="24.42" height="23.61" rx="3.07" transform="translate(-66.77 -68.12) rotate(-3.7)" style="fill:#fff;stroke:#263238;stroke-linecap:round;stroke-linejoin:round"></rect><rect x="172.27" y="221.53" width="7.57" height="7.32" rx="1.5" transform="translate(-66.77 -68.12) rotate(-3.7)" style="fill:#fff;stroke:#263238;stroke-linecap:round;stroke-linejoin:round"></rect><path d="M163.28,216.84l7.14-.46a2.52,2.52,0,0,1,2.68,2.36l.2,3" transform="translate(-52.61 -79.95)" style="fill:none;stroke:#263238;stroke-linecap:round;stroke-linejoin:round"></path><path d="M187.65,215.27l-7.05.45a2.53,2.53,0,0,0-2.36,2.68l.2,3" transform="translate(-52.61 -79.95)" style="fill:none;stroke:#263238;stroke-linecap:round;stroke-linejoin:round"></path><path d="M164.48,235.32l7.14-.46a2.52,2.52,0,0,0,2.35-2.68l-.19-3" transform="translate(-52.61 -79.95)" style="fill:none;stroke:#263238;stroke-linecap:round;stroke-linejoin:round"></path><path d="M188.85,233.75l-7,.45a2.52,2.52,0,0,1-2.69-2.35l-.19-3" transform="translate(-52.61 -79.95)" style="fill:none;stroke:#263238;stroke-linecap:round;stroke-linejoin:round"></path><line x1="111.34" y1="146.6" x2="119.7" y2="146.06" style="fill:none;stroke:#263238;stroke-linecap:round;stroke-linejoin:round"></line><line x1="127.05" y1="145.59" x2="135.42" y2="145.05" style="fill:none;stroke:#263238;stroke-linecap:round;stroke-linejoin:round"></line><path d="M268.73,200.52a3.57,3.57,0,0,1-1.5-1.46,5.44,5.44,0,0,1-.65-2.36,5.58,5.58,0,0,1,.34-2.41,3.57,3.57,0,0,1,1.3-1.65,4.26,4.26,0,0,1,2.11-.68,4.63,4.63,0,0,1,1.59.17,3.86,3.86,0,0,1,1.34.68.58.58,0,0,1,.22.42.42.42,0,0,1-.08.31.27.27,0,0,1-.22.15.67.67,0,0,1-.37-.11,4.44,4.44,0,0,0-1.2-.62,3.26,3.26,0,0,0-1.2-.13,2.72,2.72,0,0,0-2.15,1.09,4.06,4.06,0,0,0-.61,2.71,4.12,4.12,0,0,0,1,2.63,2.74,2.74,0,0,0,2.28.79,3.47,3.47,0,0,0,1.17-.27,4.66,4.66,0,0,0,1.11-.77.63.63,0,0,1,.35-.16.27.27,0,0,1,.24.11.39.39,0,0,1,.12.3.56.56,0,0,1-.17.45,3.84,3.84,0,0,1-1.23.84,4.51,4.51,0,0,1-1.56.37A4,4,0,0,1,268.73,200.52Z" transform="translate(-52.61 -79.95)" style="fill:#fff"></path><path d="M282.35,199.73a.38.38,0,0,1-.12.32.55.55,0,0,1-.32.14.51.51,0,0,1-.47-.22l-1.83-2.53a2.16,2.16,0,0,0-.72-.66,2.09,2.09,0,0,0-1-.13l-1.56.1.21,3.25a.54.54,0,0,1-.11.38.54.54,0,0,1-.74.05.55.55,0,0,1-.16-.37l-.5-7.8a.48.48,0,0,1,.12-.37.51.51,0,0,1,.37-.16l3.08-.2a3.32,3.32,0,0,1,2.22.49,2.3,2.3,0,0,1,.87,1.82,2.33,2.33,0,0,1-.49,1.71,2.76,2.76,0,0,1-1.67.88,1.67,1.67,0,0,1,.58.29,3.16,3.16,0,0,1,.53.59l1.56,2.15A.49.49,0,0,1,282.35,199.73Zm-3.53-4a2.41,2.41,0,0,0,1.5-.52,1.59,1.59,0,0,0,.42-1.32,1.54,1.54,0,0,0-.58-1.22,2.35,2.35,0,0,0-1.55-.31l-2.51.16.21,3.37Z" transform="translate(-52.61 -79.95)" style="fill:#fff"></path><path d="M284.26,199.82a.47.47,0,0,1-.17-.35l-.5-7.76a.46.46,0,0,1,.12-.37.51.51,0,0,1,.37-.16l4.65-.3a.49.49,0,0,1,.35.09.38.38,0,0,1,.15.3.43.43,0,0,1-.11.32.5.5,0,0,1-.34.13l-4.16.27.2,3,3.91-.25a.47.47,0,0,1,.35.09.4.4,0,0,1,.15.3.41.41,0,0,1-.1.32.53.53,0,0,1-.35.14l-3.91.25.21,3.18,4.16-.27a.52.52,0,0,1,.35.08.4.4,0,0,1,.15.31.38.38,0,0,1-.11.32.49.49,0,0,1-.34.14l-4.64.3A.51.51,0,0,1,284.26,199.82Z" transform="translate(-52.61 -79.95)" style="fill:#fff"></path><path d="M291.49,199.36a.51.51,0,0,1-.17-.36l-.5-7.76a.48.48,0,0,1,.12-.37.51.51,0,0,1,.37-.16l2.42-.16a4,4,0,0,1,4.69,4.09,4.38,4.38,0,0,1-.95,3.32,4.43,4.43,0,0,1-3.17,1.35l-2.42.16A.55.55,0,0,1,291.49,199.36Zm5.87-4.65q-.23-3.51-3.63-3.28l-1.87.12.46,7,1.86-.12Q297.58,198.23,297.36,194.71Z" transform="translate(-52.61 -79.95)" style="fill:#fff"></path><path d="M300.67,198.82a.51.51,0,0,1-.16-.37l-.51-7.84a.55.55,0,0,1,.11-.39.52.52,0,0,1,.37-.17.5.5,0,0,1,.38.12.53.53,0,0,1,.16.37l.51,7.84a.51.51,0,0,1-.12.39.48.48,0,0,1-.36.17A.49.49,0,0,1,300.67,198.82Z" transform="translate(-52.61 -79.95)" style="fill:#fff"></path><path d="M306,198.48a.54.54,0,0,1-.17-.37l-.48-7.43-2.67.17a.51.51,0,0,1-.36-.09.43.43,0,0,1-.14-.31.41.41,0,0,1,.1-.34.5.5,0,0,1,.34-.13l6.38-.41a.49.49,0,0,1,.35.09.46.46,0,0,1,0,.64.49.49,0,0,1-.34.14l-2.67.17.48,7.43a.55.55,0,0,1-.11.39.59.59,0,0,1-.75,0Z" transform="translate(-52.61 -79.95)" style="fill:#fff"></path><path d="M315.89,197.47a3.57,3.57,0,0,1-1.5-1.46,6.12,6.12,0,0,1-.31-4.77,3.61,3.61,0,0,1,1.3-1.64,4.1,4.1,0,0,1,2.12-.68,4.6,4.6,0,0,1,1.58.16,4,4,0,0,1,1.34.68.6.6,0,0,1,.23.43.48.48,0,0,1-.08.31.28.28,0,0,1-.23.14.69.69,0,0,1-.37-.11,4.4,4.4,0,0,0-1.19-.62,3.31,3.31,0,0,0-1.2-.12,2.72,2.72,0,0,0-2.16,1.08,4,4,0,0,0-.6,2.71,4.12,4.12,0,0,0,.94,2.63A2.71,2.71,0,0,0,318,197a3.24,3.24,0,0,0,1.17-.27,4.66,4.66,0,0,0,1.11-.77.66.66,0,0,1,.35-.16.3.3,0,0,1,.25.11.51.51,0,0,1,.12.3.59.59,0,0,1-.17.45,4,4,0,0,1-1.24.85,4.69,4.69,0,0,1-1.56.37A4.18,4.18,0,0,1,315.89,197.47Z" transform="translate(-52.61 -79.95)" style="fill:#fff"></path><path d="M330.12,196.62a.38.38,0,0,1-.12.32.51.51,0,0,1-.33.15.45.45,0,0,1-.46-.27l-1-2-4.69.31-.76,2.07a.44.44,0,0,1-.42.32.45.45,0,0,1-.35-.11.39.39,0,0,1-.17-.3.44.44,0,0,1,0-.2l3.05-8.14a.51.51,0,0,1,.2-.27.65.65,0,0,1,.32-.11.63.63,0,0,1,.34.07.56.56,0,0,1,.24.24l4.07,7.67A.56.56,0,0,1,330.12,196.62Zm-6.29-2.32,3.94-.26-2.26-4.33Z" transform="translate(-52.61 -79.95)" style="fill:#fff"></path><path d="M338.33,196.12a.37.37,0,0,1-.12.31.55.55,0,0,1-.32.14.5.5,0,0,1-.46-.22l-1.84-2.53a2,2,0,0,0-.71-.65,2,2,0,0,0-1-.14l-1.57.1.21,3.25a.48.48,0,0,1-.11.38.44.44,0,0,1-.35.17.47.47,0,0,1-.38-.12.51.51,0,0,1-.16-.37l-.51-7.8a.48.48,0,0,1,.12-.37.51.51,0,0,1,.37-.16l3.08-.2a3.29,3.29,0,0,1,2.22.49,2.65,2.65,0,0,1,.38,3.53,2.74,2.74,0,0,1-1.67.89,1.42,1.42,0,0,1,.58.28,2.87,2.87,0,0,1,.54.59l1.56,2.15A.48.48,0,0,1,338.33,196.12Zm-3.52-4a2.35,2.35,0,0,0,1.49-.52,1.58,1.58,0,0,0,.42-1.32,1.53,1.53,0,0,0-.57-1.22,2.43,2.43,0,0,0-1.56-.31l-2.51.16.22,3.37Z" transform="translate(-52.61 -79.95)" style="fill:#fff"></path><path d="M340.24,196.21a.5.5,0,0,1-.16-.36l-.5-7.76a.48.48,0,0,1,.12-.37.49.49,0,0,1,.37-.16l2.42-.16a4.4,4.4,0,1,1,.56,8.76l-2.42.16A.55.55,0,0,1,340.24,196.21Zm5.87-4.65c-.15-2.34-1.36-3.43-3.63-3.29l-1.86.13.45,7,1.87-.13C345.21,195.15,346.26,193.9,346.11,191.56Z" transform="translate(-52.61 -79.95)" style="fill:#fff"></path><path d="M166,271.05a6.8,6.8,0,0,1-1.15-3.78,6.89,6.89,0,0,1,.65-3.92,3.32,3.32,0,0,1,5.28-.35,8.64,8.64,0,0,1,.5,7.71,3.31,3.31,0,0,1-5.28.34Zm4.38-1a9.22,9.22,0,0,0-.41-6.35,2.08,2.08,0,0,0-3.56.24,9.05,9.05,0,0,0,.41,6.34,1.89,1.89,0,0,0,1.84.9A1.92,1.92,0,0,0,170.39,270.08Z" transform="translate(-52.61 -79.95)" style="fill:#fff;stroke:#263238;stroke-linecap:round;stroke-linejoin:round;stroke-width:0.25px"></path><path d="M176.06,270.41a8.64,8.64,0,0,1-.5-7.71,3.31,3.31,0,0,1,5.28-.35,6.78,6.78,0,0,1,1.15,3.79,6.89,6.89,0,0,1-.65,3.92,3.32,3.32,0,0,1-5.28.35Zm4.37-1a6.6,6.6,0,0,0,.37-3.21,6.78,6.78,0,0,0-.77-3.14,2.1,2.1,0,0,0-3.57.24,6.73,6.73,0,0,0-.37,3.21,6.87,6.87,0,0,0,.78,3.13,2.07,2.07,0,0,0,3.56-.23Z" transform="translate(-52.61 -79.95)" style="fill:#fff;stroke:#263238;stroke-linecap:round;stroke-linejoin:round;stroke-width:0.25px"></path><path d="M186.1,269.76a8.68,8.68,0,0,1-.49-7.71,3.31,3.31,0,0,1,5.28-.35,8.72,8.72,0,0,1,.5,7.71,3.31,3.31,0,0,1-5.29.35Zm4.38-1a9.11,9.11,0,0,0-.4-6.34,2.09,2.09,0,0,0-3.57.23,6.73,6.73,0,0,0-.37,3.21,6.63,6.63,0,0,0,.78,3.13,2.06,2.06,0,0,0,3.56-.23Z" transform="translate(-52.61 -79.95)" style="fill:#fff;stroke:#263238;stroke-linecap:round;stroke-linejoin:round;stroke-width:0.25px"></path><path d="M196.15,269.11a8.72,8.72,0,0,1-.5-7.71,3.33,3.33,0,0,1,5.29-.35,6.89,6.89,0,0,1,1.15,3.79,6.78,6.78,0,0,1-.66,3.92,3.3,3.3,0,0,1-5.28.35Zm4.38-1a9,9,0,0,0-.41-6.34,1.88,1.88,0,0,0-1.85-.89,1.92,1.92,0,0,0-1.71,1.12,6.73,6.73,0,0,0-.37,3.21,6.63,6.63,0,0,0,.78,3.13,2.06,2.06,0,0,0,3.56-.23Z" transform="translate(-52.61 -79.95)" style="fill:#fff;stroke:#263238;stroke-linecap:round;stroke-linejoin:round;stroke-width:0.25px"></path><path d="M216.48,267.79a8.64,8.64,0,0,1-.5-7.71,3.31,3.31,0,0,1,5.28-.34,6.78,6.78,0,0,1,1.15,3.79,6.9,6.9,0,0,1-.65,3.92,3.31,3.31,0,0,1-5.28.34Zm4.37-1a9.15,9.15,0,0,0-.4-6.35,2.09,2.09,0,0,0-3.57.24,6.7,6.7,0,0,0-.37,3.2,6.92,6.92,0,0,0,.78,3.14,2.07,2.07,0,0,0,3.56-.23Z" transform="translate(-52.61 -79.95)" style="fill:#fff;stroke:#263238;stroke-linecap:round;stroke-linejoin:round;stroke-width:0.25px"></path><path d="M226.52,267.14a8.7,8.7,0,0,1-.5-7.7,3.31,3.31,0,0,1,5.29-.35,6.78,6.78,0,0,1,1.15,3.79,6.89,6.89,0,0,1-.65,3.92,3.32,3.32,0,0,1-5.29.34Zm4.38-1a9.15,9.15,0,0,0-.4-6.35,2.09,2.09,0,0,0-3.57.24,9.05,9.05,0,0,0,.41,6.34,2.07,2.07,0,0,0,3.56-.23Z" transform="translate(-52.61 -79.95)" style="fill:#fff;stroke:#263238;stroke-linecap:round;stroke-linejoin:round;stroke-width:0.25px"></path><path d="M236.57,266.49a6.8,6.8,0,0,1-1.15-3.78,6.89,6.89,0,0,1,.65-3.92,3.3,3.3,0,0,1,5.28-.35,8.64,8.64,0,0,1,.5,7.71,3.31,3.31,0,0,1-5.28.34Zm4.38-1a9.07,9.07,0,0,0-.41-6.35,2.08,2.08,0,0,0-3.56.24,9.05,9.05,0,0,0,.41,6.34,1.89,1.89,0,0,0,1.84.9A1.91,1.91,0,0,0,241,265.52Z" transform="translate(-52.61 -79.95)" style="fill:#fff;stroke:#263238;stroke-linecap:round;stroke-linejoin:round;stroke-width:0.25px"></path><path d="M246.62,265.84a6.72,6.72,0,0,1-1.15-3.78,6.8,6.8,0,0,1,.65-3.92,3.32,3.32,0,0,1,5.28-.35,6.7,6.7,0,0,1,1.15,3.79,6.8,6.8,0,0,1-.65,3.92,3.31,3.31,0,0,1-5.28.34Zm4.37-1a6.6,6.6,0,0,0,.37-3.21,6.78,6.78,0,0,0-.77-3.14,2.09,2.09,0,0,0-3.57.24,6.72,6.72,0,0,0-.36,3.2,6.64,6.64,0,0,0,.78,3.14,2.06,2.06,0,0,0,3.55-.23Z" transform="translate(-52.61 -79.95)" style="fill:#fff;stroke:#263238;stroke-linecap:round;stroke-linejoin:round;stroke-width:0.25px"></path><path d="M266.94,264.53a6.81,6.81,0,0,1-1.15-3.79,6.9,6.9,0,0,1,.65-3.92,3.33,3.33,0,0,1,5.29-.35,6.93,6.93,0,0,1,1.15,3.8,6.81,6.81,0,0,1-.66,3.92,3,3,0,0,1-2.55,1.49A3,3,0,0,1,266.94,264.53Zm4.38-1a6.77,6.77,0,0,0,.37-3.21,6.87,6.87,0,0,0-.77-3.14,1.94,1.94,0,0,0-1.86-.89,1.91,1.91,0,0,0-1.71,1.13,9.05,9.05,0,0,0,.41,6.34,2.07,2.07,0,0,0,3.56-.23Z" transform="translate(-52.61 -79.95)" style="fill:#fff;stroke:#263238;stroke-linecap:round;stroke-linejoin:round;stroke-width:0.25px"></path><path d="M277,263.88a6.81,6.81,0,0,1-1.15-3.79,6.9,6.9,0,0,1,.65-3.92,3.32,3.32,0,0,1,5.28-.35,8.66,8.66,0,0,1,.5,7.72,3.31,3.31,0,0,1-5.28.34Zm4.38-1a6.66,6.66,0,0,0,.36-3.21,6.74,6.74,0,0,0-.77-3.14,2.08,2.08,0,0,0-3.56.24A6.58,6.58,0,0,0,277,260a6.67,6.67,0,0,0,.78,3.14,2.07,2.07,0,0,0,3.56-.23Z" transform="translate(-52.61 -79.95)" style="fill:#fff;stroke:#263238;stroke-linecap:round;stroke-linejoin:round;stroke-width:0.25px"></path><path d="M287,263.23a8.64,8.64,0,0,1-.5-7.71,3,3,0,0,1,2.55-1.49,3,3,0,0,1,2.73,1.14,8.74,8.74,0,0,1,.5,7.72,3.31,3.31,0,0,1-5.28.34Zm4.37-1a6.64,6.64,0,0,0,.37-3.21,6.74,6.74,0,0,0-.77-3.14,2.09,2.09,0,0,0-3.57.24,6.7,6.7,0,0,0-.37,3.2,6.92,6.92,0,0,0,.78,3.14,2.07,2.07,0,0,0,3.56-.23Z" transform="translate(-52.61 -79.95)" style="fill:#fff;stroke:#263238;stroke-linecap:round;stroke-linejoin:round;stroke-width:0.25px"></path><path d="M297.08,262.58a8.68,8.68,0,0,1-.49-7.71,3.31,3.31,0,0,1,5.28-.34,6.78,6.78,0,0,1,1.15,3.79,6.9,6.9,0,0,1-.65,3.92,3.32,3.32,0,0,1-5.29.34Zm4.38-1a9.15,9.15,0,0,0-.4-6.35,2.09,2.09,0,0,0-3.57.24,9.05,9.05,0,0,0,.41,6.34,2.07,2.07,0,0,0,3.56-.23Z" transform="translate(-52.61 -79.95)" style="fill:#fff;stroke:#263238;stroke-linecap:round;stroke-linejoin:round;stroke-width:0.25px"></path><path d="M317.41,261.27a6.73,6.73,0,0,1-1.15-3.79,6.9,6.9,0,0,1,.65-3.92,3,3,0,0,1,2.56-1.49,3,3,0,0,1,2.72,1.14,8.66,8.66,0,0,1,.5,7.72,3.31,3.31,0,0,1-5.28.34Zm4.38-1a9.19,9.19,0,0,0-.41-6.34,2.08,2.08,0,0,0-3.56.24,6.56,6.56,0,0,0-.37,3.2,6.63,6.63,0,0,0,.78,3.13,1.9,1.9,0,0,0,1.84.91A1.92,1.92,0,0,0,321.79,260.29Z" transform="translate(-52.61 -79.95)" style="fill:#fff;stroke:#263238;stroke-linecap:round;stroke-linejoin:round;stroke-width:0.25px"></path><path d="M327.46,260.62a8.64,8.64,0,0,1-.5-7.71,3,3,0,0,1,2.55-1.49,3,3,0,0,1,2.73,1.14,8.74,8.74,0,0,1,.5,7.72,3.31,3.31,0,0,1-5.28.34Zm4.37-1a9.12,9.12,0,0,0-.4-6.34,2.09,2.09,0,0,0-3.57.24,6.68,6.68,0,0,0-.37,3.2,7,7,0,0,0,.78,3.14,1.92,1.92,0,0,0,1.85.9A1.9,1.9,0,0,0,331.83,259.64Z" transform="translate(-52.61 -79.95)" style="fill:#fff;stroke:#263238;stroke-linecap:round;stroke-linejoin:round;stroke-width:0.25px"></path><path d="M337.5,260a8.68,8.68,0,0,1-.49-7.71,3,3,0,0,1,2.55-1.49,3,3,0,0,1,2.73,1.14,8.74,8.74,0,0,1,.5,7.72,3.32,3.32,0,0,1-5.29.34Zm4.38-1a9.15,9.15,0,0,0-.4-6.35,2.09,2.09,0,0,0-3.57.24,9.05,9.05,0,0,0,.41,6.34,2.07,2.07,0,0,0,3.56-.23Z" transform="translate(-52.61 -79.95)" style="fill:#fff;stroke:#263238;stroke-linecap:round;stroke-linejoin:round;stroke-width:0.25px"></path><path d="M347.55,259.32a6.81,6.81,0,0,1-1.15-3.79,6.9,6.9,0,0,1,.65-3.92,3.32,3.32,0,0,1,5.28-.35,8.66,8.66,0,0,1,.5,7.72,3,3,0,0,1-2.55,1.49A3,3,0,0,1,347.55,259.32Zm4.38-1a9.07,9.07,0,0,0-.41-6.35,2.08,2.08,0,0,0-3.56.24,9.05,9.05,0,0,0,.41,6.34,2.07,2.07,0,0,0,3.56-.23Z" transform="translate(-52.61 -79.95)" style="fill:#fff;stroke:#263238;stroke-linecap:round;stroke-linejoin:round;stroke-width:0.25px"></path><path d="M344.59,296.52a11.42,11.42,0,1,0-1.48-22.79l-15.48,1a11.42,11.42,0,0,0,1.47,22.8Z" transform="translate(-52.61 -79.95)" style="fill:#fff"></path></g></svg>